<svg xmlns="http://www.w3.org/2000/svg"  viewBox="0 0 21.488 21.384">
    <defs>
        <style>
            .cls-1{fill:#888}
        </style>
    </defs>
    <path id="Path_16063" d="M1100.18 736.443v-.459a.717.717 0 0 0-1.434 0v.455h-3.407v-.455a.717.717 0 0 0-1.433 0v.455h-3.3v-.389a.717.717 0 1 0-1.433 0v.423a5.59 5.59 0 0 0-4.982 5.549v9.048a5.589 5.589 0 0 0 5.583 5.583h10.326a5.589 5.589 0 0 0 5.582-5.583v-9.048a5.586 5.586 0 0 0-5.502-5.579zm-11.007 1.478v.4a.717.717 0 1 0 1.433 0v-.444h3.3v.379a.717.717 0 1 0 1.433 0v-.379h3.407v.379a.717.717 0 1 0 1.434 0v-.375a4.151 4.151 0 0 1 4.066 4.144v.654h-18.621v-.654a4.151 4.151 0 0 1 3.547-4.104zm10.924 17.3h-10.323a4.154 4.154 0 0 1-4.149-4.149v-6.961h18.621v6.961a4.154 4.154 0 0 1-4.146 4.146z" class="cls-1" data-name="Path 16063" transform="translate(-1084.191 -735.267)"/>
</svg>
