<svg xmlns="http://www.w3.org/2000/svg" id="Group_878" data-name="Group 878" viewBox="0 0 20.15 23.386">
    <defs>
        <style>
            .cls-1{fill:#888}
        </style>
    </defs>
    <path id="Path_8" d="M307.444 239.766a10.141 10.141 0 0 0-9.653-9.511 10.078 10.078 0 0 0-9.146 15.085c1.184 2.059 4.825 5.611 6.89 7.545a2.771 2.771 0 0 0 3.787 0c2.219-2.089 6.108-5.951 7.214-8.346a10.133 10.133 0 0 0 .908-4.773zm-2.181 4.187c-.735 1.592-3.25 4.477-6.9 7.913a1.369 1.369 0 0 1-1.868 0c-3.417-3.2-5.835-5.833-6.634-7.221a8.675 8.675 0 0 1 7.521-12.992c.118 0 .237 0 .356.007a8.728 8.728 0 0 1 8.308 8.185 8.6 8.6 0 0 1-.783 4.108z" class="cls-1" data-name="Path 8" transform="translate(-287.309 -230.248)"/>
    <path id="Path_9" d="M305.867 244.307a2.92 2.92 0 1 0 2.92 2.92 2.923 2.923 0 0 0-2.92-2.92zm0 4.437a1.518 1.518 0 1 1 1.518-1.518 1.52 1.52 0 0 1-1.518 1.518z" class="cls-1" data-name="Path 9" transform="translate(-295.641 -237.739)"/>
</svg>
