<?xml version="1.0" encoding="utf-8"?>
<!-- Generator: Adobe Illustrator 16.0.0, SVG Export Plug-In . SVG Version: 6.00 Build 0)  -->
<!DOCTYPE svg PUBLIC "-//W3C//DTD SVG 1.1//EN" "http://www.w3.org/Graphics/SVG/1.1/DTD/svg11.dtd">
<svg version="1.1" id="Layer_1" xmlns="http://www.w3.org/2000/svg" xmlns:xlink="http://www.w3.org/1999/xlink" x="0px" y="0px"
	 width="100px" height="100" viewBox="0 0 100 100" enable-background="new 0 0 100 100" xml:space="preserve">
<g>
	<defs>
		<rect id="SVGID_1_" width="100" height="100"/>
	</defs>
	<clipPath id="SVGID_2_">
		<use xlink:href="#SVGID_1_"  overflow="visible"/>
	</clipPath>
	<path clip-path="url(#SVGID_2_)" fill-rule="evenodd" clip-rule="evenodd" fill="#51AAAB" d="M49.011,20.568
		c-5.914,0-10.709,4.795-10.709,10.709c0,5.915,4.795,10.709,10.709,10.709S59.72,37.192,59.72,31.277
		C59.72,25.363,54.925,20.568,49.011,20.568"/>
	<path clip-path="url(#SVGID_2_)" fill-rule="evenodd" clip-rule="evenodd" fill="#744D60" d="M19.409,50.039
		c0,5.914,4.795,10.709,10.709,10.709c5.915,0,10.709-4.795,10.709-10.709c0-5.915-4.794-10.709-10.709-10.709
		C24.204,39.33,19.409,44.125,19.409,50.039"/>
	<path clip-path="url(#SVGID_2_)" fill-rule="evenodd" clip-rule="evenodd" fill="#E5C82A" d="M78.534,50.039
		c0,5.914-4.795,10.709-10.709,10.709c-5.915,0-10.709-4.795-10.709-10.709c0-5.915,4.794-10.709,10.709-10.709
		C73.739,39.33,78.534,44.125,78.534,50.039"/>
	<path clip-path="url(#SVGID_2_)" fill-rule="evenodd" clip-rule="evenodd" fill="#738D57" d="M49.011,79.693
		c-5.914,0-10.709-4.795-10.709-10.709c0-5.915,4.795-10.709,10.709-10.709S59.72,63.069,59.72,68.984
		C59.72,74.898,54.925,79.693,49.011,79.693"/>
	<path clip-path="url(#SVGID_2_)" fill="#51AAAB" d="M26.249,12.399c-2.37,0-4.298,1.928-4.298,4.298
		c0,2.371,1.928,4.299,4.298,4.299s4.298-1.928,4.298-4.299C30.547,14.328,28.619,12.399,26.249,12.399"/>
	<path clip-path="url(#SVGID_2_)" fill="#51AAAB" d="M40.628,6.185c-2.37,0-4.298,1.928-4.298,4.298
		c0,2.371,1.928,4.299,4.298,4.299c2.37,0,4.298-1.928,4.298-4.299C44.926,8.113,42.998,6.185,40.628,6.185"/>
	<path clip-path="url(#SVGID_2_)" fill="#51AAAB" d="M57.336,6.185c-2.37,0-4.298,1.928-4.298,4.298
		c0,2.371,1.928,4.299,4.298,4.299s4.298-1.928,4.298-4.299C61.634,8.113,59.706,6.185,57.336,6.185"/>
	<path clip-path="url(#SVGID_2_)" fill="#51AAAB" d="M71.694,12.399c-2.37,0-4.298,1.928-4.298,4.298
		c0,2.371,1.928,4.299,4.298,4.299s4.298-1.928,4.298-4.299C75.992,14.328,74.064,12.399,71.694,12.399"/>
	<path clip-path="url(#SVGID_2_)" fill="#738D57" d="M26.249,79.266c-2.37,0-4.298,1.928-4.298,4.298
		c0,2.371,1.928,4.299,4.298,4.299s4.298-1.928,4.298-4.299C30.547,81.193,28.619,79.266,26.249,79.266"/>
	<path clip-path="url(#SVGID_2_)" fill="#738D57" d="M40.628,85.479c-2.37,0-4.298,1.929-4.298,4.299
		c0,2.369,1.928,4.299,4.298,4.299c2.37,0,4.298-1.93,4.298-4.299C44.926,87.408,42.998,85.479,40.628,85.479"/>
	<path clip-path="url(#SVGID_2_)" fill="#738D57" d="M57.336,85.479c-2.37,0-4.298,1.929-4.298,4.299
		c0,2.369,1.928,4.299,4.298,4.299s4.298-1.93,4.298-4.299C61.634,87.408,59.706,85.479,57.336,85.479"/>
	<path clip-path="url(#SVGID_2_)" fill="#738D57" d="M71.694,79.266c-2.37,0-4.298,1.928-4.298,4.298
		c0,2.371,1.928,4.299,4.298,4.299s4.298-1.928,4.298-4.299C75.992,81.193,74.064,79.266,71.694,79.266"/>
	<path clip-path="url(#SVGID_2_)" fill="#744D60" d="M15.539,68.555c-2.37,0-4.298,1.928-4.298,4.298c0,2.371,1.928,4.3,4.298,4.3
		c2.37,0,4.298-1.929,4.298-4.3C19.836,70.482,17.908,68.555,15.539,68.555"/>
	<path clip-path="url(#SVGID_2_)" fill="#744D60" d="M13.623,58.474c0-2.369-1.928-4.298-4.298-4.298
		c-2.371,0-4.299,1.929-4.299,4.298c0,2.37,1.928,4.299,4.299,4.299C11.694,62.772,13.623,60.844,13.623,58.474"/>
	<path clip-path="url(#SVGID_2_)" fill="#744D60" d="M9.324,46.065c2.37,0,4.298-1.928,4.298-4.298c0-2.371-1.928-4.299-4.298-4.299
		c-2.37,0-4.298,1.928-4.298,4.299C5.026,44.137,6.954,46.065,9.324,46.065"/>
	<path clip-path="url(#SVGID_2_)" fill="#744D60" d="M15.539,23.11c-2.37,0-4.298,1.928-4.298,4.298c0,2.37,1.928,4.299,4.298,4.299
		c2.37,0,4.298-1.929,4.298-4.299C19.836,25.038,17.908,23.11,15.539,23.11"/>
	<path clip-path="url(#SVGID_2_)" fill="#E5C82A" d="M82.404,68.555c-2.37,0-4.298,1.928-4.298,4.298c0,2.371,1.928,4.3,4.298,4.3
		c2.37,0,4.298-1.929,4.298-4.3C86.703,70.482,84.774,68.555,82.404,68.555"/>
	<path clip-path="url(#SVGID_2_)" fill="#E5C82A" d="M88.619,54.176c-2.37,0-4.298,1.928-4.298,4.298
		c0,2.371,1.928,4.299,4.298,4.299c2.37,0,4.298-1.928,4.298-4.299C92.917,56.104,90.989,54.176,88.619,54.176"/>
	<path clip-path="url(#SVGID_2_)" fill="#E5C82A" d="M84.32,41.767c0,2.37,1.928,4.298,4.298,4.298c2.371,0,4.299-1.928,4.299-4.298
		c0-2.37-1.928-4.298-4.299-4.298C86.249,37.468,84.32,39.396,84.32,41.767"/>
	<path clip-path="url(#SVGID_2_)" fill="#E5C82A" d="M82.404,31.707c2.37,0,4.298-1.928,4.298-4.298s-1.928-4.299-4.298-4.299
		c-2.37,0-4.298,1.929-4.298,4.299S80.035,31.707,82.404,31.707"/>
</g>
</svg>
