<svg id="illustration" xmlns="http://www.w3.org/2000/svg" viewBox="0 0 350 350"><defs><style>.cls-1{fill:none;}.cls-2{fill:#ececeb;}.cls-3{clip-path:url(#clip-path);}.cls-4{fill:#3f8f6f;}.cls-10,.cls-11,.cls-12,.cls-13,.cls-14,.cls-15,.cls-4,.cls-5,.cls-6,.cls-7,.cls-8,.cls-9{fill-rule:evenodd;}.cls-5{fill:#35785d;}.cls-6{fill:#fde4d5;}.cls-7{fill:#f5cab3;}.cls-8{fill:#c2917d;}.cls-9{fill:#b8c745;}.cls-10{fill:#fff0e8;}.cls-11{fill:#d9e354;}.cls-12{fill:#e8f078;}.cls-13{fill:#738d56;}.cls-14{fill:#54b08b;}.cls-15{fill:#72c9a6;}</style><clipPath id="clip-path"><ellipse class="cls-1" cx="175" cy="175.5" rx="175" ry="174.5"/></clipPath></defs><circle class="cls-2" cx="175" cy="175" r="175"/><g class="cls-3"><polygon class="cls-4" points="213.67 287.01 229.43 321.59 252.71 356.17 239.09 288.71 213.67 287.01"/><polygon class="cls-5" points="213.67 287.01 252.71 356.17 227.17 373.42 205.56 383.29 145.21 419.7 110.64 338.24 213.67 287.01"/><polygon class="cls-6" points="246.53 72.92 216.46 61.37 138.67 72.92 205.17 302.02 217.61 274.45 235.38 248.68 262.68 235.86 295.23 224.92 271.37 163.26 254.77 96.69 246.53 72.92"/><polygon class="cls-6" points="235.38 248.68 295.23 224.92 254.77 96.69 239.09 88.75 222.99 81.03 178.51 79.52 180.13 99.05 176.31 97.22 168.82 112.72 204.34 259.74 235.38 248.68"/><polygon class="cls-7" points="169.05 112.84 204.34 259.74 199.28 265.18 185.76 266.93 176.41 255.32 169.69 238.46 165.69 194.18 169.05 112.84"/><polygon class="cls-8" points="185.76 266.93 205.16 302.02 235.38 248.68 204.34 259.74 185.76 266.93"/><polygon class="cls-9" points="169.05 112.84 145.92 120.94 122.07 129.26 98.72 137.15 75.38 145.25 68.6 258.75 161.3 128.89 169.05 112.84"/><polygon class="cls-7" points="224.01 129.73 236.24 162.69 258.09 123.53 224.01 129.73"/><polygon class="cls-7" points="216 131.23 186.97 152.69 211.54 155.83 234.02 182.13 216 131.23"/><polygon class="cls-8" points="242.53 179.64 240.36 188.44 234.02 182.13 242.53 179.64"/><polygon class="cls-9" points="216 131.23 188.72 143.21 186.97 152.69 216 131.23"/><polygon class="cls-9" points="224.01 129.73 255.31 118.39 258.09 123.53 224.01 129.73"/><polygon class="cls-10" points="216 131.23 234.02 182.13 242.53 179.64 224.01 129.73 216 131.23"/><polygon class="cls-11" points="169.69 238.46 205.17 302.02 230.63 350 167 355.98 161.87 308.76 169.69 238.46"/><polygon class="cls-12" points="161.3 128.89 138.67 350.58 168.7 350 169.69 238.46 168.82 112.72 161.3 128.89"/><polygon class="cls-11" points="157.3 168.08 83.11 326.12 38.07 302.67 68.6 258.75 161.3 128.89 157.3 168.08"/><polygon class="cls-9" points="157.3 168.08 83.11 326.12 138.67 350.58 145.04 288.23 155.79 240.62 157.3 168.08"/><polygon class="cls-7" points="270.23 193.68 245.7 210.65 213.67 211.65 248.2 220.13 270.23 193.68"/><polygon class="cls-8" points="270.23 193.68 260.18 197.22 246.2 199.67 237.19 202.66 226.66 208.66 213.67 211.65 245.7 210.65 270.23 193.68"/><polygon class="cls-12" points="169.15 159.92 157.3 168.08 154.42 196.33 169.33 186.38 169.15 159.92"/><polygon class="cls-12" points="169.33 186.38 154.42 196.33 152.32 216.89 169.47 207.33 169.33 186.38"/><polygon class="cls-12" points="169.47 207.33 152.32 216.89 149.99 239.73 169.64 228.79 169.47 207.33"/><polygon class="cls-12" points="169.64 228.79 149.99 239.73 147.43 264.81 169.57 252.27 169.64 228.79"/><polygon class="cls-12" points="169.57 252.27 147.43 264.82 145.04 288.23 169.38 274.73 169.57 252.27"/><polygon class="cls-13" points="83.11 326.12 75.38 420.7 138.67 350.58 83.11 326.12"/></g><polygon class="cls-4" points="177.16 146.59 151.11 115.78 247.59 66.94 256.82 103.17 177.16 146.59"/><polygon class="cls-5" points="177.16 146.59 71.62 208.23 73.16 182.34 151.11 115.78 177.16 146.59"/><polygon class="cls-14" points="151.11 115.78 75.59 67.95 122.98 38.74 214.64 41.41 247.59 66.94 151.11 115.78"/><polygon class="cls-4" points="73.16 182.34 54.33 169.6 37.45 148.82 75.59 67.95 151.11 115.78 73.16 182.34"/><polygon class="cls-15" points="75.59 67.95 214.64 41.41 122.98 38.74 75.59 67.95"/><circle cx="206.32" cy="161.04" r="6.35"/><circle cx="247.02" cy="147.09" r="6.35"/></svg>