<svg id="illustration" xmlns="http://www.w3.org/2000/svg" viewBox="0 0 350 350"><defs><style>.cls-1{fill:none;}.cls-2{fill:#ececeb;}.cls-3{clip-path:url(#clip-path);}.cls-4{fill:#738d56;}.cls-10,.cls-11,.cls-12,.cls-4,.cls-5,.cls-6,.cls-7,.cls-8,.cls-9{fill-rule:evenodd;}.cls-5{fill:#5a753d;}.cls-6{fill:#fde4d5;}.cls-7{fill:#f5cab3;}.cls-8{fill:#c2917d;}.cls-9{fill:#e8f078;}.cls-10{fill:#d9e354;}.cls-11{fill:#b8c745;}.cls-12{fill:#fff0e8;}.cls-13{fill:#bfdb8e;}.cls-14{fill:#a0cf7e;}.cls-15{fill:#99c26d;}.cls-16{fill:#3f8f6f;}.cls-17{fill:#35785d;}</style><clipPath id="clip-path"><ellipse class="cls-1" cx="175" cy="175.5" rx="175" ry="174.5"/></clipPath></defs><circle class="cls-2" cx="175" cy="175" r="175"/><g class="cls-3"><polygon class="cls-4" points="213.67 287.01 229.43 321.59 252.71 356.17 239.09 288.71 213.67 287.01"/><polygon class="cls-5" points="213.67 287.01 252.71 356.17 227.17 373.42 205.56 383.29 145.21 419.7 110.64 338.24 213.67 287.01"/><polygon class="cls-6" points="246.53 72.92 216.46 61.37 138.67 72.92 205.17 302.02 217.61 274.45 235.38 248.68 262.68 235.86 295.23 224.92 271.37 163.26 254.77 96.69 246.53 72.92"/><polygon class="cls-6" points="235.38 248.68 295.23 224.92 254.77 96.69 239.09 88.75 222.99 81.03 178.51 79.52 180.13 99.05 176.31 97.22 168.82 112.72 204.34 259.74 235.38 248.68"/><polygon class="cls-7" points="169.05 112.84 204.34 259.74 199.28 265.18 185.76 266.93 176.41 255.32 169.69 238.46 165.69 194.18 169.05 112.84"/><polygon class="cls-8" points="185.76 266.93 205.16 302.02 235.38 248.68 204.34 259.74 185.76 266.93"/><polygon class="cls-9" points="254.89 96.71 246.53 72.93 188.22 43.64 168.37 96.82 254.89 96.71"/><polygon class="cls-10" points="188.22 43.64 105.14 71.09 75.38 145.25 98.72 137.15 122.07 129.26 145.21 121.16 169.05 112.84 188.22 43.64"/><polygon class="cls-11" points="169.05 112.84 145.92 120.94 122.07 129.26 98.72 137.15 75.38 145.25 68.6 258.75 161.3 128.89 169.05 112.84"/><polygon class="cls-7" points="224.01 129.73 236.24 162.69 258.09 123.53 224.01 129.73"/><polygon class="cls-7" points="216 131.23 186.97 152.69 211.54 155.83 234.02 182.13 216 131.23"/><polygon class="cls-8" points="242.53 179.64 240.36 188.44 234.02 182.13 242.53 179.64"/><polygon class="cls-11" points="216 131.23 188.72 143.21 186.97 152.69 216 131.23"/><polygon class="cls-11" points="224.01 129.73 255.31 118.39 258.09 123.53 224.01 129.73"/><polygon class="cls-12" points="216 131.23 234.02 182.13 242.53 179.64 224.01 129.73 216 131.23"/><polygon class="cls-10" points="169.69 238.46 205.17 302.02 230.63 350 167 355.98 161.87 308.76 169.69 238.46"/><polygon class="cls-9" points="161.3 128.89 138.67 350.58 168.7 350 169.69 238.46 168.82 112.72 161.3 128.89"/><polygon class="cls-10" points="157.3 168.08 83.11 326.12 38.07 302.67 68.6 258.75 161.3 128.89 157.3 168.08"/><polygon class="cls-11" points="157.3 168.08 83.11 326.12 138.67 350.58 145.04 288.23 155.79 240.62 157.3 168.08"/><polygon class="cls-7" points="270.23 193.68 245.7 210.65 213.67 211.65 248.2 220.13 270.23 193.68"/><polygon class="cls-8" points="270.23 193.68 260.18 197.22 246.2 199.67 237.19 202.66 226.66 208.66 213.67 211.65 245.7 210.65 270.23 193.68"/><polygon class="cls-9" points="169.15 159.92 157.3 168.08 154.42 196.33 169.33 186.38 169.15 159.92"/><polygon class="cls-9" points="169.33 186.38 154.42 196.33 152.32 216.89 169.47 207.33 169.33 186.38"/><polygon class="cls-9" points="169.47 207.33 152.32 216.89 149.99 239.73 169.64 228.79 169.47 207.33"/><polygon class="cls-9" points="169.64 228.79 149.99 239.73 147.43 264.81 169.57 252.27 169.64 228.79"/><polygon class="cls-9" points="169.57 252.27 147.43 264.82 145.04 288.23 169.38 274.73 169.57 252.27"/><polygon class="cls-4" points="83.11 326.12 75.38 420.7 138.67 350.58 83.11 326.12"/></g><polygon class="cls-13" points="125.95 134.06 143.31 132.7 137.62 146.18 125.95 134.06"/><polygon class="cls-14" points="143.31 132.7 148.4 149.64 137.62 146.18 143.31 132.7"/><polygon class="cls-14" points="125.95 134.06 137.62 146.18 120.61 153.07 125.95 134.06"/><polygon class="cls-13" points="137.62 146.18 148.4 149.64 135.47 161.18 137.62 146.18"/><polygon class="cls-15" points="137.62 146.18 120.61 153.07 135.47 161.18 137.62 146.18"/><polygon class="cls-16" points="120.61 153.07 135.47 161.18 136.89 190.59 103.6 169.91 120.61 153.07"/><polygon class="cls-17" points="103.6 169.91 107.6 190.11 121.09 196.9 136.89 190.59 103.6 169.91"/><polygon class="cls-16" points="148.4 149.64 174.85 159.67 142.99 188.62 135.47 161.18 148.4 149.64"/><polygon class="cls-17" points="174.85 159.67 173.41 178.4 161.17 190.21 142.99 188.62 174.85 159.67"/><polygon class="cls-17" points="166.8 111.48 183.07 118.31 187.67 133.78 176.76 151.49 166.8 111.48"/><polygon class="cls-16" points="166.8 111.48 143.31 132.7 148.4 149.64 176.76 151.49 166.8 111.48"/><polygon class="cls-16" points="143.31 132.7 161.05 108.27 119.53 113.38 125.95 134.06 143.31 132.7"/><polygon class="cls-17" points="161.05 108.27 149.31 94.77 133.42 96.58 119.53 113.38 161.05 108.27"/><polygon class="cls-16" points="111.47 118.78 125.95 134.06 120.61 153.07 101.16 165.54 111.47 118.78"/><polygon class="cls-17" points="101.16 165.54 92.23 149.75 96.19 130.24 111.47 118.78 101.16 165.54"/><circle cx="206.32" cy="161.04" r="6.35"/><circle cx="247.02" cy="147.09" r="6.35"/></svg>