<svg id="illustration" xmlns="http://www.w3.org/2000/svg" viewBox="0 0 350 350"><defs><style>.cls-1{fill:none;}.cls-2{fill:#ececeb;}.cls-3{clip-path:url(#clip-path);}.cls-4{fill:#e5c828;}.cls-10,.cls-11,.cls-12,.cls-13,.cls-4,.cls-5,.cls-6,.cls-7,.cls-8,.cls-9{fill-rule:evenodd;}.cls-5{fill:#bf8f00;}.cls-6{fill:#755800;}.cls-7{fill:#fde4d5;}.cls-8{fill:#f5cab3;}.cls-9{fill:#c2917d;}.cls-10{fill:#856400;}.cls-11{fill:#fff0e8;}.cls-12{fill:#fff;}.cls-13{fill:#9e7700;}.cls-14{fill:#2b2b2b;}</style><clipPath id="clip-path"><circle class="cls-1" cx="175" cy="175" r="175"/></clipPath></defs><circle class="cls-2" cx="175" cy="175" r="175"/><g class="cls-3"><path class="cls-4" d="M224.14,359.16c18.65-3.54,37.32-6.38,56.07-8.94l-2.53-58.6-33.94-.44-16.75,23-13.45,32.21,1.28,14.57Z"/><path class="cls-4" d="M154.41,366.58c17.7-1.3,35.47-2.58,53.18-4.29,2.41-.44,4.82-.9,7.23-1.36l-1.28-14.57-44.42-15.11-43.95-9.66L96.52,331.73l7,38Q129,368.44,154.41,366.58Z"/><polygon class="cls-5" points="175.42 303.15 133.13 292.36 123.51 287.14 111.95 285.01 125.17 321.6 213.54 346.36 175.42 303.15"/><polygon class="cls-6" points="111.95 285.01 123.62 277.53 131.08 283.54 133.13 292.36 111.95 285.01"/><polygon class="cls-6" points="221.68 254.26 247.27 268.26 243.74 291.18 213.54 346.36 215.16 290.24 221.68 254.26"/><path class="cls-6" d="M85.15,370.65c7.25-.32,14.49-.69,21.74-1.07L96.52,331.73,59.06,346.28l15.57,23.47Z"/><path class="cls-6" d="M302.47,347.29l16.64-56.11-41.43.44-.35,59Q289.87,348.9,302.47,347.29Z"/><path class="cls-5" d="M215.46,360.81l-1.92-14.45.63,14.7Z"/><polygon class="cls-7" points="114.63 120.36 205.35 115.99 232.93 102.56 263.05 241.56 221.68 254.26 216.02 272.21 218.77 291.27 172.32 304.7 133.13 292.36 74.7 201.27 60.55 179.5 114.63 120.36"/><polygon class="cls-8" points="125.08 121.33 168.39 269.8 221.68 254.26 216.79 272.89 218.77 291.27 213.53 346.36 172.32 304.7 133.13 292.36 93.71 230.91 117.17 213.31 97.2 184.94 74.7 201.27 60.55 179.5 103.62 137.28 113.05 124.54 125.08 121.33"/><polygon class="cls-8" points="211.32 194.91 185.34 157.89 152.36 147.2 190.11 135.59 199.79 147.33 211.32 194.91"/><polygon class="cls-8" points="213.91 143.96 220.59 131.96 237.81 125.07 221.9 176.94 213.91 143.96"/><polygon class="cls-9" points="117.17 213.31 93.71 230.91 105.62 249.47 117.17 213.31"/><polygon class="cls-10" points="77.41 98.25 152.79 218.41 131.68 233.94 97.2 184.94 74.7 201.27 60.55 179.5 77.41 98.25"/><polygon class="cls-11" points="213.91 143.96 199.79 147.33 211.32 194.91 225.43 191.49 213.91 143.96"/><polygon class="cls-9" points="103.38 209.38 95.87 198.49 87.28 204.55 103.38 209.38"/><polygon class="cls-10" points="152.36 147.2 178.49 129.42 190.11 135.59 152.36 147.2"/><polygon class="cls-10" points="220.59 131.96 235.11 115.99 246 121.8 220.59 131.96"/><polygon class="cls-9" points="247.81 199.1 168.33 218.33 198.45 233.57 232.93 225.59 247.81 199.1"/><polygon class="cls-12" points="238.66 206.48 182.84 219.93 199.53 229.23 229.39 222.24 238.66 206.48"/><polygon class="cls-9" points="225.43 191.49 219.36 201.54 211.32 194.91 225.43 191.49"/><polygon class="cls-10" points="113.05 124.54 165.97 53.07 205.35 44.83 208.4 89.04 205.35 115.99 113.05 124.54"/><polygon class="cls-5" points="205.35 44.83 268.13 36.15 232.93 102.56 205.35 115.99 205.35 44.83"/><polygon class="cls-9" points="221.68 254.26 152 274.58 218.77 291.27 221.68 254.26"/><polygon class="cls-13" points="110.89 151.62 165.97 53.07 77.41 98.25 110.89 151.62"/><circle class="cls-14" cx="181.32" cy="160.86" r="6.32"/><circle class="cls-14" cx="230.73" cy="149.86" r="6.32"/></g></svg>