<svg id="illustration" xmlns="http://www.w3.org/2000/svg" viewBox="0 0 350 350"><defs><style>.cls-1{fill:none;}.cls-2{fill:#ececeb;}.cls-3{clip-path:url(#clip-path);}.cls-4{fill:#2b2b2b;}.cls-5{fill:#e5c828;}.cls-6{fill:#c2917d;}.cls-7{fill:#ccad14;}.cls-8{fill:#f4d75d;}.cls-9{fill:#755800;}.cls-10{fill:#474747;}.cls-11{fill:#4f5253;}.cls-12{fill:#f5cab3;}.cls-13{fill:#fde4d5;}.cls-14{fill:#9e7700;}.cls-15{fill:#cececd;}.cls-16{fill:#856400;}.cls-17{fill:#bf8f00;}.cls-18{fill:#b58b00;}.cls-19{fill:#737373;}.cls-20{fill:#fff0e8;}</style><clipPath id="clip-path"><circle class="cls-1" cx="175" cy="175" r="175"/></clipPath></defs><circle class="cls-2" cx="175" cy="175" r="175"/><g class="cls-3"><polygon class="cls-4" points="89.42 254.61 104.44 297.43 109.72 271.57 89.42 254.61"/><polygon class="cls-5" points="248.2 282.14 299.6 369.41 246.03 370.15 248.2 282.14"/><polygon class="cls-6" points="198.77 255.23 183.13 305.77 137.03 267.65 139.39 249.16 186.97 247.39 198.77 255.23"/><polygon class="cls-5" points="245.4 432.08 228.95 449.16 200.9 449.17 198.52 349.81 224.29 347.02 248.03 356.02 248.19 421.84 245.4 432.08"/><polygon class="cls-7" points="248.2 282.14 209.82 269.35 222.43 299.53 183.13 299.1 198.52 349.81 247.86 348.31 248.2 282.14"/><polygon class="cls-8" points="248.3 370.22 223.54 370 222.44 349.19 247.86 348.31 248.3 370.22"/><polygon class="cls-7" points="198.52 349.81 200.9 449.17 117.64 457.5 148.85 420.29 177.1 374.03 198.52 349.81"/><polygon class="cls-7" points="87.54 342.37 99.09 459.83 131.08 458.81 133.33 433.32 182.69 358.82 181.14 351.68 174 346.71 105.67 339.76 87.54 342.37"/><polygon class="cls-8" points="165.93 374.03 116.77 360.36 112.09 343.42 168.73 347.73 165.93 374.03"/><polygon class="cls-9" points="198.52 349.81 132.03 458.26 119.12 463.44 103.11 463.81 93.82 459 168.73 347.73 198.52 349.81"/><polygon class="cls-8" points="32.67 377.9 74.78 288.08 77.14 298.59 87.54 342.37 90.81 377.79 32.67 377.9"/><polygon class="cls-5" points="183.13 299.1 198.52 349.81 87.54 342.37 74.78 288.08 122.83 263.51 183.13 299.1"/><polygon class="cls-10" points="85.25 197.05 114.17 227.36 108.07 187.99 94.48 181.49 85.25 197.05"/><polygon class="cls-11" points="79.97 169.97 85.25 197.05 100.98 187.7 99.8 154.9 84.72 141.9 79.97 169.97"/><polygon class="cls-12" points="124.67 273.41 106.89 207.96 110.44 164.94 141.16 115.6 160.16 116.85 160.46 220.48 186.97 247.39 154.49 257.11 144.42 263.81 183.13 299.1 124.67 273.41"/><polygon class="cls-13" points="148.26 134.89 154.49 257.11 262.94 257.94 271.48 106.52 240.16 79.63 154.76 90.57 148.26 134.89"/><polygon class="cls-11" points="148.26 134.89 121.66 188.59 87.38 155.78 78.85 140.04 82.36 130.37 139.39 119.44 148.26 134.89"/><polygon class="cls-6" points="106.89 201.29 121.66 188.59 111.32 183.26 100.98 187.7 106.89 201.29"/><path class="cls-12" d="M250.31,104c-1,.5-23,.75-23,.75L219.1,115,270.17,140ZM270.17,140l9.09-2.86Z"/><polygon class="cls-14" points="159.45 34.93 161.69 82.61 146.47 142.82 61.2 115.8 77.17 75.37 159.45 34.93"/><path class="cls-15" d="M268.53,103,250.88,54.51,159.45,34.93l-13,107.89Z"/><path class="cls-9" d="M240.82,110.72,270.17,140l43.54-12.84-27.71-26Z"/><polygon class="cls-16" points="146.47 142.82 286 101.24 171.1 101.87 146.47 142.82"/><polygon class="cls-17" points="61.2 115.8 146.47 142.82 79.97 169.97 61.2 115.8"/><polygon class="cls-13" points="121.66 188.59 100.98 187.7 87.38 155.78 112.8 151.65 121.66 188.59"/><polygon class="cls-6" points="111.32 177.36 107.18 161.1 98.61 162.58 111.32 177.36"/><polygon class="cls-8" points="183.13 299.1 121.89 263.92 108.33 271.01 139.84 333.19 183.13 299.1"/><polygon class="cls-14" points="227.06 275.19 209.82 269.35 168.73 347.73 198.52 349.81 227.06 275.19"/><polygon class="cls-8" points="237.33 309.15 183.13 299.1 195.37 265.73 209.82 269.35 237.33 309.15"/><path class="cls-12" d="M251.21,151.57l-20.83,9.21L225,172.28l-2.58,4.92-5.37-5-8.56-10.68-7.9-5.26-29.45-4-9.45,4.65,27,17.11,24.05,27.58,18.43-.18,11.68-27.12,22.22-19.89-9.64-3.59Z"/><polygon class="cls-18" points="222.64 223.33 234.96 230.7 225.28 237.71 208.89 237.53 198.28 227.87 218.19 222.69 222.64 223.33"/><polygon class="cls-6" points="223.66 194.19 231.17 201.38 221.11 208.02 212.74 201.55 223.66 194.19"/><polygon class="cls-19" points="208.45 161.51 206 153.66 173.06 149.34 161.65 156.86 172.28 154.27 208.45 161.51"/><polygon class="cls-19" points="230.38 160.78 232.13 154.29 254.25 148.47 265.07 154.36 255.77 152.7 230.38 160.78"/><polygon class="cls-20" points="224.96 172.28 231.17 201.38 212.74 201.55 217.01 172.2 224.96 172.28"/><polygon class="cls-9" points="242.08 227.26 221.11 219.82 190.16 221.56 198.28 227.87 220.11 228.61 234.96 230.7 242.08 227.26"/><path class="cls-4" d="M235.44,173a6.93,6.93,0,1,0,13.85.14,6.93,6.93,0,0,0-13.85-.14Z"/><path class="cls-4" d="M182,173.41A7,7,0,1,0,189,166.5,7,7,0,0,0,182,173.41Z"/><polygon class="cls-10" points="114.17 227.36 89.42 254.61 108.33 271.01 121.89 263.92 114.17 227.36"/></g></svg>